# xmcd
#
# Track frame offsets:
#	183
#	10315
#	21918
#	32488
#	43448
#	53988
#	65463
#	77313
#	89038
#	100488
#	111125
#	122060
#	133380
#	146600
#	157513
#	169165
#
# Disc length: 2439 seconds
#
# Revision: 1
# Processed by: cddbd v1.5.1PL2 Copyright (c) Steve Scherf et al.
# Submitted via: EasyCDDAExtractor 6.0.0.1
#
DISCID=d9098510
DTITLE=Patsy Cline - Country Music CM003
DYEAR=1999
DGENRE=Country
TTITLE0=Turn The Cards Slowly
TTITLE1=The Heart You Break
TTITLE2=Three Cigarettes In An Ashtray
TTITLE3=I Cried All The Way  To The Altar
TTITLE4=Pick Me Up (On Your Way Down)
TTITLE5=Just Out Of Reach
TTITLE6=In Care Of The Blues
TTITLE7=I've Loved And Lost Again
TTITLE8=Hungry For Love
TTITLE9=I Love You Honey
TTITLE10=Stop Look And Listen
TTITLE11=Don't Ever Leave Me
TTITLE12=If I Could See The World
TTITLE13=Honky Tonk Merry-Go-Round
TTITLE14=Walkin' After Midnight # 2 ('57)
TTITLE15=A Church A Courtroom And Then Goodbye
EXTD=
EXTT0=
EXTT1=
EXTT2=
EXTT3=
EXTT4=
EXTT5=
EXTT6=
EXTT7=
EXTT8=
EXTT9=
EXTT10=
EXTT11=
EXTT12=
EXTT13=
EXTT14=
EXTT15=
PLAYORDER=
